<?xml version="1.0" standalone="no"?>
<!DOCTYPE svg PUBLIC "-//W3C//DTD SVG 20010904//EN"
 "http://www.w3.org/TR/2001/REC-SVG-20010904/DTD/svg10.dtd">
<svg version="1.0" xmlns="http://www.w3.org/2000/svg"
 width="169.000000pt" height="169.000000pt" viewBox="0 0 169.000000 169.000000"
 preserveAspectRatio="xMidYMid meet">
<metadata>
Created by potrace 1.11, written by Peter Selinger 2001-2013
</metadata>
<g transform="translate(0.000000,169.000000) scale(0.100000,-0.100000)"
fill="#000000" stroke="none">
<path d="M448 1283 c-3 -35 -6 -38 -35 -41 -28 -3 -32 -7 -35 -35 -3 -29 -6
-32 -40 -35 l-38 -3 0 -139 0 -139 38 -3 c35 -3 37 -5 34 -35 -3 -30 -2 -32
35 -35 37 -3 38 -4 41 -48 2 -24 8 -50 14 -57 17 -21 46 -15 51 10 2 12 5 -4
6 -35 1 -50 4 -60 27 -75 15 -9 41 -17 58 -16 17 1 24 -1 15 -3 -26 -8 6 -91
42 -109 44 -23 69 -19 69 9 0 21 -6 25 -35 29 l-35 4 37 -1 c36 -1 38 -3 41
-38 2 -29 8 -37 28 -42 14 -4 29 -4 34 -1 6 4 10 -9 10 -29 0 -34 2 -36 35
-36 33 0 35 2 35 35 0 33 2 35 35 35 33 0 35 2 36 33 l1 32 7 -30 6 -30 30 30
30 30 -40 4 -40 5 45 5 c49 6 68 34 30 44 -11 3 -20 12 -20 21 0 9 -8 16 -20
16 -16 0 -20 7 -20 35 0 28 4 35 20 35 13 0 20 7 20 20 0 13 -7 20 -20 20 -13
0 -20 7 -20 20 0 13 -7 20 -20 20 -13 0 -20 7 -20 19 0 10 -9 21 -20 24 -17 4
-20 14 -20 56 l0 51 40 0 c33 0 40 -3 40 -20 0 -13 7 -20 20 -20 11 0 20 -7
20 -15 0 -10 11 -15 35 -15 24 0 35 5 35 15 0 11 11 15 40 15 29 0 40 -4 40
-15 0 -8 9 -15 20 -15 11 0 20 7 20 15 0 8 -9 15 -20 15 -13 0 -20 7 -20 20 0
18 7 20 55 20 44 0 55 -3 55 -16 0 -9 9 -18 20 -21 15 -4 20 -14 20 -39 0 -22
5 -34 14 -34 19 0 27 60 9 67 -26 10 -12 23 25 23 l37 0 -3 140 -3 140 -35 0
c-32 0 -34 2 -34 35 0 33 -2 35 -34 35 -33 0 -35 2 -38 38 l-3 37 -137 3 -138
3 0 -41 c0 -39 -1 -40 -34 -40 -32 0 -35 -3 -38 -32 -3 -30 -6 -33 -40 -36
-37 -3 -38 -3 -38 32 0 34 -2 36 -35 36 -34 0 -35 1 -35 40 l0 40 -144 0 -145
0 -3 -37z m222 -143 c0 -39 -1 -40 -34 -40 -33 0 -35 -2 -38 -37 -3 -36 -5
-38 -35 -38 -31 0 -33 -2 -33 -37 0 -38 0 -38 -40 -38 l-40 0 0 75 0 75 35 0
c33 0 35 2 35 33 0 19 3 37 7 40 3 4 37 7 75 7 l68 0 0 -40z"/>
<path d="M854 1210 c-36 -14 -38 -30 -5 -30 24 0 31 4 31 20 0 11 -1 20 -2 19
-2 0 -13 -4 -24 -9z"/>
<path d="M1088 833 c-25 -6 -23 -33 2 -33 13 0 20 7 20 20 0 11 -1 19 -2 19
-2 -1 -11 -3 -20 -6z"/>
<path d="M1347 793 c-4 -3 -7 -37 -7 -75 l0 -68 35 0 c24 0 35 5 35 15 0 8 -9
15 -20 15 -18 0 -20 7 -20 60 0 55 -6 70 -23 53z"/>
<path d="M1230 775 c0 -8 7 -15 15 -15 8 0 15 7 15 15 0 8 -7 15 -15 15 -8 0
-15 -7 -15 -15z"/>
<path d="M1160 750 c-13 -9 -13 -11 0 -20 10 -6 16 -6 18 0 7 20 -3 30 -18 20z"/>
<path d="M1270 746 c0 -9 7 -16 16 -16 17 0 14 22 -4 28 -7 2 -12 -3 -12 -12z"/>
<path d="M1190 705 c0 -8 7 -15 15 -15 8 0 15 7 15 15 0 8 -7 15 -15 15 -8 0
-15 -7 -15 -15z"/>
<path d="M1300 625 c0 -8 9 -15 20 -15 11 0 20 7 20 15 0 8 -9 15 -20 15 -11
0 -20 -7 -20 -15z"/>
<path d="M1420 604 c0 -45 24 -42 28 4 2 24 -1 32 -12 32 -12 0 -16 -10 -16
-36z"/>
<path d="M1225 560 c-8 -14 3 -30 21 -30 8 0 14 9 14 20 0 21 -24 28 -35 10z"/>
<path d="M1380 555 c0 -8 7 -15 15 -15 8 0 15 7 15 15 0 8 -7 15 -15 15 -8 0
-15 -7 -15 -15z"/>
<path d="M1037 523 c-17 -17 -2 -23 53 -23 l60 0 0 -40 c0 -33 3 -40 20 -40
11 0 20 -7 20 -15 0 -10 11 -15 35 -15 24 0 35 5 35 15 0 9 9 15 21 15 14 0
19 5 17 17 -5 26 -38 29 -38 4 0 -17 -6 -21 -35 -21 -33 0 -35 2 -35 34 0 25
5 35 20 39 11 3 20 12 20 21 0 14 -15 16 -93 16 -52 0 -97 -3 -100 -7z"/>
<path d="M1340 515 c0 -8 7 -15 15 -15 8 0 15 7 15 15 0 8 -7 15 -15 15 -8 0
-15 -7 -15 -15z"/>
<path d="M1307 493 c-13 -12 -7 -33 8 -33 8 0 15 9 15 20 0 20 -11 26 -23 13z"/>
</g>
</svg>
